<?xml version="1.0" encoding="UTF-8" standalone="no"?>
<!-- Created with Inkscape (http://www.inkscape.org/) -->

<svg
   width="167.28078mm"
   height="135.5312mm"
   viewBox="0 0 167.28078 135.5312"
   version="1.1"
   id="svg1"
   xml:space="preserve"
   inkscape:version="1.3.2 (091e20ef0f, 2023-11-25, custom)"
   sodipodi:docname="MapaBitsLogo.svg"
   xmlns:inkscape="http://www.inkscape.org/namespaces/inkscape"
   xmlns:sodipodi="http://sodipodi.sourceforge.net/DTD/sodipodi-0.dtd"
   xmlns="http://www.w3.org/2000/svg"
   xmlns:svg="http://www.w3.org/2000/svg"><sodipodi:namedview
     id="namedview1"
     pagecolor="#ffffff"
     bordercolor="#000000"
     borderopacity="0.25"
     inkscape:showpageshadow="2"
     inkscape:pageopacity="0.0"
     inkscape:pagecheckerboard="0"
     inkscape:deskcolor="#d1d1d1"
     inkscape:document-units="mm"
     inkscape:zoom="0.48756441"
     inkscape:cx="139.46875"
     inkscape:cy="445.0694"
     inkscape:window-width="1920"
     inkscape:window-height="1011"
     inkscape:window-x="0"
     inkscape:window-y="0"
     inkscape:window-maximized="1"
     inkscape:current-layer="layer1" /><defs
     id="defs1" /><g
     inkscape:label="Capa 1"
     inkscape:groupmode="layer"
     id="layer1"
     transform="translate(-27.408553,-48.783751)"><g
       id="g28"
       transform="translate(21.359611,-72.810158)"
       inkscape:export-filename="../../Semestre Proyecto Grado/SHC180 Proyecto de grado/backendNestjsPG/src/libs/images/logoAgua.png"
       inkscape:export-xdpi="96"
       inkscape:export-ydpi="96"><g
         id="g27"><g
           id="g26"><g
             id="g25"><circle
               style="fill:#ffffff;fill-opacity:1;stroke-width:6.6386"
               id="path1"
               cx="96.579071"
               cy="201.42566"
               r="92.090569" /><g
               id="g24"
               transform="translate(6.0489443,-18.888313)"><path
                 style="fill:#0170bf;fill-opacity:1"
                 d="m 139.23682,275.87396 c -8.6627,-0.48524 -13.70301,-9.55488 -8.80365,-15.84147 0.63831,-0.81905 0.5662,-12.0161 -0.0813,-12.6244 -0.85453,-0.8028 -1.93697,-1.09821 -4.40986,-1.2035 -2.73284,-0.11635 -2.7392,-0.11342 -3.34305,1.54269 -1.68011,4.60789 -6.84599,8.85249 -12.12954,9.9664 -2.0377,0.4296 -35.312993,0.42009 -37.346176,-0.0107 -3.335524,-0.70668 -5.906661,-2.09562 -8.507061,-4.59556 -1.349692,-1.29755 -1.375601,-1.25184 0.802912,-1.41629 6.713437,-0.50675 11.604334,-3.03174 22.927231,-11.83646 11.697884,-9.09631 16.242224,-11.94153 23.221854,-14.53929 16.21861,-6.03642 32.63381,-3.53857 45.65449,6.94708 6.83048,5.50065 7.41406,7.02088 7.64509,19.91551 l 0.12762,7.12286 0.68608,1.07252 c 3.59193,5.61508 0.89537,12.70089 -5.70724,14.99705 -1.5002,0.52172 -14.69367,0.84208 -20.73739,0.50354 z M 20.905023,253.22502 c -4.505863,-1.55809 -5.59146,-3.56915 -5.683389,-10.52843 l -0.06563,-4.96802 2.67509,0.001 c 6.144802,0.003 10.807689,1.28597 21.844617,6.01175 3.633925,1.55597 3.693561,1.61473 1.638692,1.61473 h -1.653244 l -1.293797,0.99164 c -1.727827,1.32431 -3.602238,2.19102 -5.605781,2.59206 -1.625794,0.32543 -1.664797,0.34742 -2.545021,1.4345 -2.249762,2.77848 -6.106048,3.95902 -9.311537,2.85059 z"
                 id="path24"
                 sodipodi:nodetypes="ssssssssssssscsssscsccsscssscc" /><path
                 style="fill:#3ea9f5;fill-opacity:1"
                 d="m 60.95298,244.53475 c -4.998973,-0.49775 -9.427961,-1.94624 -20.446011,-6.68682 -19.765091,-8.50404 -28.524447,-8.68173 -39.3207596,-0.79761 -1.5816133,1.15499 -1.5816133,0.90948 0,-1.06418 11.0561106,-13.79671 20.9080376,-16.04023 40.7979716,-9.2907 7.969942,2.70455 8.898488,3.00281 11.52646,3.70247 12.129952,3.22941 18.365007,1.56485 31.22861,-8.33703 14.410402,-11.09254 17.847259,-13.13455 26.098939,-15.50671 22.10813,-6.35557 42.15326,2.25217 51.4627,22.09901 1.15383,2.45986 1.0877,2.44728 -1.70352,-0.32392 -18.47114,-18.33871 -43.20611,-17.91669 -67.929361,1.15898 -2.152808,1.66104 -5.359439,4.11482 -7.125845,5.45285 -10.720908,8.12093 -16.547782,10.39433 -24.589184,9.59366 z"
                 id="path23"
                 sodipodi:nodetypes="sssssssssssss" /><path
                 style="fill:#2e3192;fill-opacity:1"
                 d="m 61.042963,224.6689 c -3.92145,-0.30188 -8.109,-1.3441 -15.345392,-3.81923 -15.73164,-5.38085 -21.52705,-6.1692 -28.64379,-3.89639 -0.86118,0.27503 -1.63353,0.5012 -1.71633,0.50261 -0.0828,10e-4 -0.15054,-3.10278 -0.15054,-6.8982 0,-7.96353 -0.38835,-6.98334 3.11128,-7.85301 8.49955,-2.11217 15.13286,-0.86218 29.0052,5.46575 19.358562,8.83051 29.002562,6.903 41.018747,-8.19825 1.81213,-2.27737 1.90162,-2.52423 0.48178,-1.32896 -8.329585,7.01218 -21.710075,9.18666 -27.413385,4.45497 -0.0353,-0.0293 0.13513,-0.4459 0.37874,-0.9258 1.84139,-3.62744 5.24547,-6.4251 9.62148,-7.90748 1.30474,-0.44198 1.30474,-0.44198 1.40558,-4.833 0.12075,-5.25753 -0.1448,-4.64259 3.02895,-7.01432 2.59096,-1.93621 2.59096,-1.93621 2.59171,-4.67466 10e-4,-4.20649 0.27245,-4.49192 4.41526,-4.64536 2.709835,-0.10037 2.709835,-0.10037 2.768495,-1.53981 0.0659,-1.61687 0.14121,-1.49986 -1.727355,-2.68338 -1.63733,-1.03707 -3.04387,-2.36209 -4.29865,-4.04951 -1.00465,-1.35106 -1.00465,-1.35106 -13.97836,-1.40683 -12.9737,-0.0558 -12.9737,-0.0558 -14.31448,-0.69099 -6.754712,-3.2001 -5.908942,-12.51818 1.31071,-14.44049 0.82335,-0.21922 3.61504,-0.27572 13.71803,-0.27761 12.68432,-0.002 12.68432,-0.002 13.57997,-1.15657 5.594205,-7.20901 16.058887,-8.48804 23.469107,-2.86849 1.22819,0.93139 3.5599,3.46033 3.5599,3.861 0,0.0889 5.4874,0.16275 12.19423,0.16406 9.53139,0.002 12.41339,0.0609 13.19787,0.27047 7.22052,1.92877 8.20629,11.0369 1.55059,14.32692 -1.52922,0.75592 -1.52922,0.75592 -13.98767,0.81186 -12.45845,0.0559 -12.45845,0.0559 -13.053,1.00364 -0.90045,1.4353 -3.44838,3.86251 -4.97829,4.74242 -2.53947,1.46054 -1.96764,3.80017 0.96135,3.93331 3.50941,0.15952 3.91062,0.60161 3.91652,4.31565 0.005,2.86718 -0.24746,2.43133 2.67875,4.63279 1.30899,0.98478 2.48325,1.88084 2.60946,1.99124 0.80275,0.70217 0.82958,0.86575 0.93203,5.68308 0.10037,4.71918 0.10037,4.71918 1.71624,5.53989 2.85497,1.45005 4.28927,2.72762 3.06224,2.72762 -0.87331,0 -5.40076,1.03785 -7.79772,1.78752 -7.36599,2.30375 -11.95409,4.95219 -21.569942,12.45104 -13.781035,10.74704 -18.919795,13.08833 -27.309315,12.4425 z"
                 id="path6"
                 sodipodi:nodetypes="ssscsssssssssscssssscsccssccssssscssssssss" /></g></g></g></g></g></g></svg>
